<mxfile host="app.diagrams.net" agent="Mozilla/5.0 (Windows NT 10.0; Win64; x64) AppleWebKit/537.36 (KHTML, like Gecko) Chrome/135.0.0.0 Safari/537.36" version="26.2.9">
  <diagram name="Page-1" id="z2Shvhw9_9Td6d4g7Xjf">
    <mxGraphModel dx="1712" dy="1230" grid="0" gridSize="10" guides="1" tooltips="1" connect="1" arrows="1" fold="1" page="0" pageScale="1" pageWidth="850" pageHeight="1100" math="0" shadow="0">
      <root>
        <mxCell id="0" />
        <mxCell id="1" parent="0" />
        <mxCell id="oT41fuzHypTPzrOU6dKd-3" style="edgeStyle=none;curved=1;rounded=0;orthogonalLoop=1;jettySize=auto;html=1;exitX=0.5;exitY=1;exitDx=0;exitDy=0;entryX=0.5;entryY=0;entryDx=0;entryDy=0;fontSize=12;startSize=8;endSize=8;" parent="1" source="oT41fuzHypTPzrOU6dKd-1" target="oT41fuzHypTPzrOU6dKd-2" edge="1">
          <mxGeometry relative="1" as="geometry" />
        </mxCell>
        <mxCell id="oT41fuzHypTPzrOU6dKd-1" value="" style="ellipse;fillColor=strokeColor;html=1;" parent="1" vertex="1">
          <mxGeometry x="354" y="-53" width="30" height="33" as="geometry" />
        </mxCell>
        <mxCell id="oT41fuzHypTPzrOU6dKd-5" style="edgeStyle=none;curved=1;rounded=0;orthogonalLoop=1;jettySize=auto;html=1;exitX=0.5;exitY=1;exitDx=0;exitDy=0;fontSize=12;startSize=8;endSize=8;" parent="1" source="oT41fuzHypTPzrOU6dKd-2" target="oT41fuzHypTPzrOU6dKd-4" edge="1">
          <mxGeometry relative="1" as="geometry" />
        </mxCell>
        <mxCell id="oT41fuzHypTPzrOU6dKd-2" value="open browser" style="html=1;whiteSpace=wrap;" parent="1" vertex="1">
          <mxGeometry x="314" y="30" width="110" height="50" as="geometry" />
        </mxCell>
        <mxCell id="oT41fuzHypTPzrOU6dKd-7" style="edgeStyle=none;curved=1;rounded=0;orthogonalLoop=1;jettySize=auto;html=1;exitX=0.5;exitY=1;exitDx=0;exitDy=0;fontSize=12;startSize=8;endSize=8;" parent="1" source="oT41fuzHypTPzrOU6dKd-4" target="oT41fuzHypTPzrOU6dKd-6" edge="1">
          <mxGeometry relative="1" as="geometry" />
        </mxCell>
        <mxCell id="oT41fuzHypTPzrOU6dKd-4" value="open web&amp;nbsp;" style="html=1;whiteSpace=wrap;" parent="1" vertex="1">
          <mxGeometry x="314" y="130" width="110" height="50" as="geometry" />
        </mxCell>
        <mxCell id="oT41fuzHypTPzrOU6dKd-10" style="edgeStyle=none;curved=1;rounded=0;orthogonalLoop=1;jettySize=auto;html=1;exitX=0.5;exitY=1;exitDx=0;exitDy=0;entryX=0.5;entryY=0;entryDx=0;entryDy=0;fontSize=12;startSize=8;endSize=8;" parent="1" source="oT41fuzHypTPzrOU6dKd-6" target="oT41fuzHypTPzrOU6dKd-9" edge="1">
          <mxGeometry relative="1" as="geometry" />
        </mxCell>
        <mxCell id="oT41fuzHypTPzrOU6dKd-79" value="worker" style="edgeLabel;html=1;align=center;verticalAlign=middle;resizable=0;points=[];fontSize=12;" parent="oT41fuzHypTPzrOU6dKd-10" vertex="1" connectable="0">
          <mxGeometry x="0.0015" y="3" relative="1" as="geometry">
            <mxPoint as="offset" />
          </mxGeometry>
        </mxCell>
        <mxCell id="oT41fuzHypTPzrOU6dKd-75" style="edgeStyle=none;curved=1;rounded=0;orthogonalLoop=1;jettySize=auto;html=1;entryX=1;entryY=0.5;entryDx=0;entryDy=0;fontSize=12;startSize=8;endSize=8;" parent="1" source="oT41fuzHypTPzrOU6dKd-6" target="oT41fuzHypTPzrOU6dKd-74" edge="1">
          <mxGeometry relative="1" as="geometry" />
        </mxCell>
        <mxCell id="oT41fuzHypTPzrOU6dKd-76" value="user" style="edgeLabel;html=1;align=center;verticalAlign=middle;resizable=0;points=[];fontSize=12;" parent="oT41fuzHypTPzrOU6dKd-75" vertex="1" connectable="0">
          <mxGeometry x="0.2735" y="-1" relative="1" as="geometry">
            <mxPoint as="offset" />
          </mxGeometry>
        </mxCell>
        <mxCell id="oT41fuzHypTPzrOU6dKd-6" value="home page" style="html=1;whiteSpace=wrap;" parent="1" vertex="1">
          <mxGeometry x="314" y="246" width="110" height="50" as="geometry" />
        </mxCell>
        <mxCell id="oT41fuzHypTPzrOU6dKd-11" style="edgeStyle=none;curved=1;rounded=0;orthogonalLoop=1;jettySize=auto;html=1;exitX=1;exitY=0.5;exitDx=0;exitDy=0;fontSize=12;startSize=8;endSize=8;" parent="1" source="oT41fuzHypTPzrOU6dKd-9" edge="1">
          <mxGeometry relative="1" as="geometry">
            <mxPoint x="513" y="351.74820143884904" as="targetPoint" />
          </mxGeometry>
        </mxCell>
        <mxCell id="M7cc7KWUnuJO1SLqBxn5-13" value="no" style="edgeLabel;html=1;align=center;verticalAlign=middle;resizable=0;points=[];" vertex="1" connectable="0" parent="oT41fuzHypTPzrOU6dKd-11">
          <mxGeometry x="-0.3736" y="4" relative="1" as="geometry">
            <mxPoint as="offset" />
          </mxGeometry>
        </mxCell>
        <mxCell id="M7cc7KWUnuJO1SLqBxn5-7" style="edgeStyle=orthogonalEdgeStyle;rounded=0;orthogonalLoop=1;jettySize=auto;html=1;exitX=0.5;exitY=1;exitDx=0;exitDy=0;" edge="1" parent="1" source="oT41fuzHypTPzrOU6dKd-9" target="M7cc7KWUnuJO1SLqBxn5-6">
          <mxGeometry relative="1" as="geometry" />
        </mxCell>
        <mxCell id="M7cc7KWUnuJO1SLqBxn5-14" value="Yes" style="edgeLabel;html=1;align=center;verticalAlign=middle;resizable=0;points=[];" vertex="1" connectable="0" parent="M7cc7KWUnuJO1SLqBxn5-7">
          <mxGeometry x="-0.4192" y="-5" relative="1" as="geometry">
            <mxPoint y="-1" as="offset" />
          </mxGeometry>
        </mxCell>
        <mxCell id="oT41fuzHypTPzrOU6dKd-9" value="button clicked?" style="rhombus;" parent="1" vertex="1">
          <mxGeometry x="308.5" y="374" width="121" height="56" as="geometry" />
        </mxCell>
        <mxCell id="oT41fuzHypTPzrOU6dKd-51" value="sign up&amp;nbsp;" style="html=1;whiteSpace=wrap;" parent="1" vertex="1">
          <mxGeometry x="722" y="486" width="110" height="50" as="geometry" />
        </mxCell>
        <mxCell id="oT41fuzHypTPzrOU6dKd-87" value="" style="edgeStyle=none;curved=1;rounded=0;orthogonalLoop=1;jettySize=auto;html=1;fontSize=12;startSize=8;endSize=8;" parent="1" source="oT41fuzHypTPzrOU6dKd-52" target="oT41fuzHypTPzrOU6dKd-58" edge="1">
          <mxGeometry relative="1" as="geometry" />
        </mxCell>
        <mxCell id="oT41fuzHypTPzrOU6dKd-52" value="" style="html=1;points=[];perimeter=orthogonalPerimeter;fillColor=strokeColor;direction=south;" parent="1" vertex="1">
          <mxGeometry x="641" y="582" width="272" height="6" as="geometry" />
        </mxCell>
        <mxCell id="oT41fuzHypTPzrOU6dKd-53" style="edgeStyle=none;curved=1;rounded=0;orthogonalLoop=1;jettySize=auto;html=1;exitX=0.5;exitY=1;exitDx=0;exitDy=0;entryX=0.333;entryY=0.446;entryDx=0;entryDy=0;entryPerimeter=0;fontSize=12;startSize=8;endSize=8;" parent="1" source="oT41fuzHypTPzrOU6dKd-51" target="oT41fuzHypTPzrOU6dKd-52" edge="1">
          <mxGeometry relative="1" as="geometry">
            <mxPoint x="777" y="555" as="sourcePoint" />
          </mxGeometry>
        </mxCell>
        <mxCell id="oT41fuzHypTPzrOU6dKd-56" style="edgeStyle=none;curved=1;rounded=0;orthogonalLoop=1;jettySize=auto;html=1;exitX=0.5;exitY=1;exitDx=0;exitDy=0;fontSize=12;startSize=8;endSize=8;" parent="1" source="oT41fuzHypTPzrOU6dKd-58" edge="1">
          <mxGeometry relative="1" as="geometry">
            <mxPoint x="783" y="768.3333740234375" as="targetPoint" />
            <Array as="points">
              <mxPoint x="783" y="773" />
            </Array>
          </mxGeometry>
        </mxCell>
        <mxCell id="oT41fuzHypTPzrOU6dKd-58" value="&lt;div&gt;location&amp;nbsp;&lt;/div&gt;" style="html=1;whiteSpace=wrap;" parent="1" vertex="1">
          <mxGeometry x="753" y="656" width="83.5" height="74" as="geometry" />
        </mxCell>
        <mxCell id="oT41fuzHypTPzrOU6dKd-61" value="" style="html=1;points=[];perimeter=orthogonalPerimeter;fillColor=strokeColor;direction=south;" parent="1" vertex="1">
          <mxGeometry x="624" y="771" width="340" height="5" as="geometry" />
        </mxCell>
        <mxCell id="oT41fuzHypTPzrOU6dKd-62" style="edgeStyle=none;curved=1;rounded=0;orthogonalLoop=1;jettySize=auto;html=1;exitX=1;exitY=0.5;exitDx=0;exitDy=0;fontSize=12;startSize=8;endSize=8;" parent="1" source="oT41fuzHypTPzrOU6dKd-64" edge="1">
          <mxGeometry relative="1" as="geometry">
            <mxPoint x="967" y="856" as="targetPoint" />
          </mxGeometry>
        </mxCell>
        <mxCell id="oT41fuzHypTPzrOU6dKd-63" style="edgeStyle=none;curved=1;rounded=0;orthogonalLoop=1;jettySize=auto;html=1;exitX=0.5;exitY=1;exitDx=0;exitDy=0;fontSize=12;startSize=8;endSize=8;" parent="1" source="oT41fuzHypTPzrOU6dKd-64" edge="1">
          <mxGeometry relative="1" as="geometry">
            <mxPoint x="794" y="978.3333740234375" as="targetPoint" />
          </mxGeometry>
        </mxCell>
        <mxCell id="oT41fuzHypTPzrOU6dKd-64" value="valid data ?&#xa;" style="rhombus;" parent="1" vertex="1">
          <mxGeometry x="743" y="833" width="101" height="46" as="geometry" />
        </mxCell>
        <mxCell id="oT41fuzHypTPzrOU6dKd-66" value="return to sign up with error massege&amp;nbsp;" style="html=1;whiteSpace=wrap;" parent="1" vertex="1">
          <mxGeometry x="965" y="829" width="110" height="50" as="geometry" />
        </mxCell>
        <mxCell id="oT41fuzHypTPzrOU6dKd-67" style="edgeStyle=none;curved=1;rounded=0;orthogonalLoop=1;jettySize=auto;html=1;exitX=0.5;exitY=1;exitDx=0;exitDy=0;fontSize=12;startSize=8;endSize=8;" parent="1" source="oT41fuzHypTPzrOU6dKd-68" target="oT41fuzHypTPzrOU6dKd-69" edge="1">
          <mxGeometry relative="1" as="geometry" />
        </mxCell>
        <mxCell id="oT41fuzHypTPzrOU6dKd-68" value="poste some of his work&amp;nbsp;" style="html=1;whiteSpace=wrap;" parent="1" vertex="1">
          <mxGeometry x="743" y="978" width="110" height="50" as="geometry" />
        </mxCell>
        <mxCell id="oT41fuzHypTPzrOU6dKd-73" style="edgeStyle=none;curved=1;rounded=0;orthogonalLoop=1;jettySize=auto;html=1;exitX=0.5;exitY=1;exitDx=0;exitDy=0;entryX=0.5;entryY=0;entryDx=0;entryDy=0;fontSize=12;startSize=8;endSize=8;" parent="1" source="oT41fuzHypTPzrOU6dKd-69" target="oT41fuzHypTPzrOU6dKd-72" edge="1">
          <mxGeometry relative="1" as="geometry" />
        </mxCell>
        <mxCell id="oT41fuzHypTPzrOU6dKd-69" value="return to the home page" style="html=1;whiteSpace=wrap;" parent="1" vertex="1">
          <mxGeometry x="741" y="1141" width="110" height="50" as="geometry" />
        </mxCell>
        <mxCell id="oT41fuzHypTPzrOU6dKd-70" value="choose the worker&amp;nbsp;" style="html=1;whiteSpace=wrap;" parent="1" vertex="1">
          <mxGeometry x="514" y="327" width="110" height="50" as="geometry" />
        </mxCell>
        <mxCell id="oT41fuzHypTPzrOU6dKd-72" value="" style="ellipse;html=1;shape=endState;fillColor=#000000;strokeColor=#ff0000;" parent="1" vertex="1">
          <mxGeometry x="787" y="1333" width="30" height="30" as="geometry" />
        </mxCell>
        <mxCell id="oT41fuzHypTPzrOU6dKd-74" value="" style="ellipse;html=1;shape=endState;fillColor=#000000;strokeColor=#ff0000;" parent="1" vertex="1">
          <mxGeometry x="168" y="253" width="30" height="30" as="geometry" />
        </mxCell>
        <mxCell id="oT41fuzHypTPzrOU6dKd-90" value="" style="edgeStyle=none;curved=1;rounded=0;orthogonalLoop=1;jettySize=auto;html=1;fontSize=12;startSize=8;endSize=8;entryX=0.5;entryY=0;entryDx=0;entryDy=0;" parent="1" target="oT41fuzHypTPzrOU6dKd-81" edge="1">
          <mxGeometry relative="1" as="geometry">
            <mxPoint x="818" y="585" as="sourcePoint" />
          </mxGeometry>
        </mxCell>
        <mxCell id="oT41fuzHypTPzrOU6dKd-81" value="phone num&amp;nbsp;" style="whiteSpace=wrap;html=1;" parent="1" vertex="1">
          <mxGeometry x="849" y="676" width="120" height="60" as="geometry" />
        </mxCell>
        <mxCell id="M7cc7KWUnuJO1SLqBxn5-3" style="edgeStyle=orthogonalEdgeStyle;rounded=0;orthogonalLoop=1;jettySize=auto;html=1;exitX=1;exitY=1;exitDx=0;exitDy=0;" edge="1" parent="1" source="oT41fuzHypTPzrOU6dKd-83">
          <mxGeometry relative="1" as="geometry">
            <mxPoint x="680" y="765" as="targetPoint" />
          </mxGeometry>
        </mxCell>
        <mxCell id="oT41fuzHypTPzrOU6dKd-83" value="full name" style="whiteSpace=wrap;html=1;" parent="1" vertex="1">
          <mxGeometry x="493" y="633.5" width="120" height="60" as="geometry" />
        </mxCell>
        <mxCell id="oT41fuzHypTPzrOU6dKd-86" style="edgeStyle=none;curved=1;rounded=0;orthogonalLoop=1;jettySize=auto;html=1;exitX=0.683;exitY=0.835;exitDx=0;exitDy=0;entryX=0.5;entryY=0;entryDx=0;entryDy=0;fontSize=12;startSize=8;endSize=8;exitPerimeter=0;" parent="1" source="oT41fuzHypTPzrOU6dKd-52" target="oT41fuzHypTPzrOU6dKd-83" edge="1">
          <mxGeometry relative="1" as="geometry">
            <mxPoint x="786" y="530" as="sourcePoint" />
            <mxPoint x="788" y="594" as="targetPoint" />
          </mxGeometry>
        </mxCell>
        <mxCell id="oT41fuzHypTPzrOU6dKd-88" value="" style="edgeStyle=none;curved=1;rounded=0;orthogonalLoop=1;jettySize=auto;html=1;fontSize=12;startSize=8;endSize=8;exitX=0.569;exitY=0.085;exitDx=0;exitDy=0;exitPerimeter=0;entryX=0.5;entryY=0;entryDx=0;entryDy=0;" parent="1" source="oT41fuzHypTPzrOU6dKd-52" target="oT41fuzHypTPzrOU6dKd-89" edge="1">
          <mxGeometry relative="1" as="geometry">
            <mxPoint x="789" y="598" as="sourcePoint" />
            <mxPoint x="789" y="666" as="targetPoint" />
          </mxGeometry>
        </mxCell>
        <mxCell id="oT41fuzHypTPzrOU6dKd-89" value="national id&amp;nbsp;" style="whiteSpace=wrap;html=1;" parent="1" vertex="1">
          <mxGeometry x="1003" y="665" width="120" height="60" as="geometry" />
        </mxCell>
        <mxCell id="M7cc7KWUnuJO1SLqBxn5-1" style="edgeStyle=orthogonalEdgeStyle;rounded=0;orthogonalLoop=1;jettySize=auto;html=1;exitX=0.5;exitY=1;exitDx=0;exitDy=0;entryX=0.267;entryY=0.155;entryDx=0;entryDy=0;entryPerimeter=0;" edge="1" parent="1" source="oT41fuzHypTPzrOU6dKd-81" target="oT41fuzHypTPzrOU6dKd-61">
          <mxGeometry relative="1" as="geometry" />
        </mxCell>
        <mxCell id="M7cc7KWUnuJO1SLqBxn5-2" style="edgeStyle=orthogonalEdgeStyle;rounded=0;orthogonalLoop=1;jettySize=auto;html=1;exitX=0;exitY=1;exitDx=0;exitDy=0;entryX=1.6;entryY=0.033;entryDx=0;entryDy=0;entryPerimeter=0;" edge="1" parent="1" source="oT41fuzHypTPzrOU6dKd-89" target="oT41fuzHypTPzrOU6dKd-61">
          <mxGeometry relative="1" as="geometry" />
        </mxCell>
        <mxCell id="M7cc7KWUnuJO1SLqBxn5-4" value="" style="endArrow=classic;html=1;rounded=0;exitX=0.533;exitY=0.529;exitDx=0;exitDy=0;exitPerimeter=0;entryX=0.5;entryY=0;entryDx=0;entryDy=0;" edge="1" parent="1" source="oT41fuzHypTPzrOU6dKd-61" target="oT41fuzHypTPzrOU6dKd-64">
          <mxGeometry width="50" height="50" relative="1" as="geometry">
            <mxPoint x="652" y="889" as="sourcePoint" />
            <mxPoint x="702" y="839" as="targetPoint" />
          </mxGeometry>
        </mxCell>
        <mxCell id="M7cc7KWUnuJO1SLqBxn5-5" value="login&amp;nbsp;" style="rounded=0;whiteSpace=wrap;html=1;" vertex="1" parent="1">
          <mxGeometry x="259" y="622" width="120" height="60" as="geometry" />
        </mxCell>
        <mxCell id="M7cc7KWUnuJO1SLqBxn5-9" style="edgeStyle=orthogonalEdgeStyle;rounded=0;orthogonalLoop=1;jettySize=auto;html=1;exitX=0.5;exitY=1;exitDx=0;exitDy=0;" edge="1" parent="1" source="M7cc7KWUnuJO1SLqBxn5-6" target="M7cc7KWUnuJO1SLqBxn5-5">
          <mxGeometry relative="1" as="geometry" />
        </mxCell>
        <mxCell id="M7cc7KWUnuJO1SLqBxn5-12" value="Yes" style="edgeLabel;html=1;align=center;verticalAlign=middle;resizable=0;points=[];" vertex="1" connectable="0" parent="M7cc7KWUnuJO1SLqBxn5-9">
          <mxGeometry x="-0.5341" y="2" relative="1" as="geometry">
            <mxPoint as="offset" />
          </mxGeometry>
        </mxCell>
        <mxCell id="M7cc7KWUnuJO1SLqBxn5-10" style="edgeStyle=orthogonalEdgeStyle;rounded=0;orthogonalLoop=1;jettySize=auto;html=1;exitX=1;exitY=0.5;exitDx=0;exitDy=0;entryX=0;entryY=0.5;entryDx=0;entryDy=0;" edge="1" parent="1" source="M7cc7KWUnuJO1SLqBxn5-6" target="oT41fuzHypTPzrOU6dKd-51">
          <mxGeometry relative="1" as="geometry" />
        </mxCell>
        <mxCell id="M7cc7KWUnuJO1SLqBxn5-11" value="No" style="edgeLabel;html=1;align=center;verticalAlign=middle;resizable=0;points=[];" vertex="1" connectable="0" parent="M7cc7KWUnuJO1SLqBxn5-10">
          <mxGeometry x="-0.0135" y="3" relative="1" as="geometry">
            <mxPoint as="offset" />
          </mxGeometry>
        </mxCell>
        <mxCell id="M7cc7KWUnuJO1SLqBxn5-6" value="Have acc?" style="rhombus;" vertex="1" parent="1">
          <mxGeometry x="323" y="465" width="110" height="30" as="geometry" />
        </mxCell>
        <mxCell id="M7cc7KWUnuJO1SLqBxn5-16" value="" style="html=1;points=[];perimeter=orthogonalPerimeter;fillColor=strokeColor;direction=south;" vertex="1" parent="1">
          <mxGeometry x="117" y="725" width="272" height="6" as="geometry" />
        </mxCell>
        <mxCell id="M7cc7KWUnuJO1SLqBxn5-19" value="" style="html=1;points=[];perimeter=orthogonalPerimeter;fillColor=strokeColor;direction=south;" vertex="1" parent="1">
          <mxGeometry x="100" y="914" width="340" height="5" as="geometry" />
        </mxCell>
        <mxCell id="M7cc7KWUnuJO1SLqBxn5-20" style="edgeStyle=none;curved=1;rounded=0;orthogonalLoop=1;jettySize=auto;html=1;exitX=1;exitY=0.5;exitDx=0;exitDy=0;fontSize=12;startSize=8;endSize=8;" edge="1" parent="1" source="M7cc7KWUnuJO1SLqBxn5-22">
          <mxGeometry relative="1" as="geometry">
            <mxPoint x="443" y="999" as="targetPoint" />
          </mxGeometry>
        </mxCell>
        <mxCell id="M7cc7KWUnuJO1SLqBxn5-36" value="&lt;br&gt;&lt;div&gt;No&lt;/div&gt;" style="edgeLabel;html=1;align=center;verticalAlign=middle;resizable=0;points=[];" vertex="1" connectable="0" parent="M7cc7KWUnuJO1SLqBxn5-20">
          <mxGeometry x="-0.2376" relative="1" as="geometry">
            <mxPoint as="offset" />
          </mxGeometry>
        </mxCell>
        <mxCell id="M7cc7KWUnuJO1SLqBxn5-21" style="edgeStyle=none;curved=1;rounded=0;orthogonalLoop=1;jettySize=auto;html=1;exitX=0.5;exitY=1;exitDx=0;exitDy=0;fontSize=12;startSize=8;endSize=8;" edge="1" parent="1" source="M7cc7KWUnuJO1SLqBxn5-22">
          <mxGeometry relative="1" as="geometry">
            <mxPoint x="270" y="1121.3333740234375" as="targetPoint" />
          </mxGeometry>
        </mxCell>
        <mxCell id="M7cc7KWUnuJO1SLqBxn5-37" value="Yes" style="edgeLabel;html=1;align=center;verticalAlign=middle;resizable=0;points=[];" vertex="1" connectable="0" parent="M7cc7KWUnuJO1SLqBxn5-21">
          <mxGeometry x="-0.3135" y="-3" relative="1" as="geometry">
            <mxPoint y="1" as="offset" />
          </mxGeometry>
        </mxCell>
        <mxCell id="M7cc7KWUnuJO1SLqBxn5-22" value="valid data ?&#xa;" style="rhombus;" vertex="1" parent="1">
          <mxGeometry x="219" y="976" width="101" height="46" as="geometry" />
        </mxCell>
        <mxCell id="M7cc7KWUnuJO1SLqBxn5-23" value="&#39;Return to sign in page&amp;nbsp;" style="html=1;whiteSpace=wrap;" vertex="1" parent="1">
          <mxGeometry x="441" y="972" width="110" height="50" as="geometry" />
        </mxCell>
        <mxCell id="M7cc7KWUnuJO1SLqBxn5-24" value="Return to home page&amp;nbsp;" style="html=1;whiteSpace=wrap;" vertex="1" parent="1">
          <mxGeometry x="219" y="1121" width="110" height="50" as="geometry" />
        </mxCell>
        <mxCell id="M7cc7KWUnuJO1SLqBxn5-27" style="edgeStyle=orthogonalEdgeStyle;rounded=0;orthogonalLoop=1;jettySize=auto;html=1;exitX=1;exitY=1;exitDx=0;exitDy=0;" edge="1" parent="1" source="M7cc7KWUnuJO1SLqBxn5-28">
          <mxGeometry relative="1" as="geometry">
            <mxPoint x="156" y="908" as="targetPoint" />
            <Array as="points">
              <mxPoint x="256" y="875" />
              <mxPoint x="157" y="875" />
              <mxPoint x="157" y="931" />
            </Array>
          </mxGeometry>
        </mxCell>
        <mxCell id="M7cc7KWUnuJO1SLqBxn5-28" value="full name" style="whiteSpace=wrap;html=1;" vertex="1" parent="1">
          <mxGeometry x="136" y="782" width="120" height="60" as="geometry" />
        </mxCell>
        <mxCell id="M7cc7KWUnuJO1SLqBxn5-29" style="edgeStyle=none;curved=1;rounded=0;orthogonalLoop=1;jettySize=auto;html=1;exitX=0.683;exitY=0.835;exitDx=0;exitDy=0;entryX=0.5;entryY=0;entryDx=0;entryDy=0;fontSize=12;startSize=8;endSize=8;exitPerimeter=0;" edge="1" parent="1" source="M7cc7KWUnuJO1SLqBxn5-16" target="M7cc7KWUnuJO1SLqBxn5-28">
          <mxGeometry relative="1" as="geometry">
            <mxPoint x="262" y="673" as="sourcePoint" />
            <mxPoint x="264" y="737" as="targetPoint" />
          </mxGeometry>
        </mxCell>
        <mxCell id="M7cc7KWUnuJO1SLqBxn5-30" value="" style="edgeStyle=none;curved=1;rounded=0;orthogonalLoop=1;jettySize=auto;html=1;fontSize=12;startSize=8;endSize=8;exitX=0.569;exitY=0.085;exitDx=0;exitDy=0;exitPerimeter=0;entryX=0.5;entryY=0;entryDx=0;entryDy=0;" edge="1" parent="1" source="M7cc7KWUnuJO1SLqBxn5-16" target="M7cc7KWUnuJO1SLqBxn5-31">
          <mxGeometry relative="1" as="geometry">
            <mxPoint x="265" y="741" as="sourcePoint" />
            <mxPoint x="265" y="809" as="targetPoint" />
          </mxGeometry>
        </mxCell>
        <mxCell id="M7cc7KWUnuJO1SLqBxn5-31" value="national id&amp;nbsp;" style="whiteSpace=wrap;html=1;" vertex="1" parent="1">
          <mxGeometry x="264" y="787" width="120" height="60" as="geometry" />
        </mxCell>
        <mxCell id="M7cc7KWUnuJO1SLqBxn5-33" style="edgeStyle=orthogonalEdgeStyle;rounded=0;orthogonalLoop=1;jettySize=auto;html=1;exitX=0;exitY=1;exitDx=0;exitDy=0;entryX=1.6;entryY=0.033;entryDx=0;entryDy=0;entryPerimeter=0;" edge="1" parent="1" source="M7cc7KWUnuJO1SLqBxn5-31" target="M7cc7KWUnuJO1SLqBxn5-19">
          <mxGeometry relative="1" as="geometry" />
        </mxCell>
        <mxCell id="M7cc7KWUnuJO1SLqBxn5-34" value="" style="endArrow=classic;html=1;rounded=0;exitX=0.533;exitY=0.529;exitDx=0;exitDy=0;exitPerimeter=0;entryX=0.5;entryY=0;entryDx=0;entryDy=0;" edge="1" parent="1" source="M7cc7KWUnuJO1SLqBxn5-19" target="M7cc7KWUnuJO1SLqBxn5-22">
          <mxGeometry width="50" height="50" relative="1" as="geometry">
            <mxPoint x="128" y="1032" as="sourcePoint" />
            <mxPoint x="178" y="982" as="targetPoint" />
          </mxGeometry>
        </mxCell>
        <mxCell id="M7cc7KWUnuJO1SLqBxn5-35" style="edgeStyle=orthogonalEdgeStyle;rounded=0;orthogonalLoop=1;jettySize=auto;html=1;exitX=0.5;exitY=1;exitDx=0;exitDy=0;entryX=1.667;entryY=0.449;entryDx=0;entryDy=0;entryPerimeter=0;" edge="1" parent="1" source="M7cc7KWUnuJO1SLqBxn5-5" target="M7cc7KWUnuJO1SLqBxn5-16">
          <mxGeometry relative="1" as="geometry" />
        </mxCell>
      </root>
    </mxGraphModel>
  </diagram>
</mxfile>
